<svg height="464pt" viewBox="-43 0 464 464.5025" width="464pt" xmlns="http://www.w3.org/2000/svg"><path d="m180.3125 131.347656h17.785156v212.339844h-17.785156zm0 0" fill="#ccc033"/><path d="m180.3125 131.347656h11.308594v212.339844h-11.308594zm0 0" fill="#99af17"/><path d="m197.964844 188.085938c98.019531-8.839844 89.855468-84.191407 84.84375-107.734376-.84375-3.976562-5.996094-5.628906-11.355469-3.652343-32.394531 11.941406-133.007813 54.605469-83.53125 108.277343 2.164063 2.351563 5.851563 3.484376 10.042969 3.109376zm0 0" fill="#ccc033"/><path d="m283.972656 86.640625c-.375-2.367187-.777344-4.480469-1.160156-6.289063-.847656-3.976562-5.996094-5.628906-11.359375-3.652343-14.714844 5.421875-43.507813 17.1875-65.914063 33.449219-.40625.292968-.808593.589843-1.210937.886718-.054687.039063-.105469.078125-.160156.121094-.351563.257812-.699219.519531-1.042969.78125-.074219.054688-.152344.113281-.226562.167969-.324219.246093-.644532.492187-.964844.742187-.089844.066406-.175782.136719-.265625.207032-.308594.238281-.609375.476562-.914063.714843-.089844.074219-.183594.148438-.277344.222657-.300781.238281-.601562.480468-.898437.722656-.089844.070312-.175781.144531-.265625.214844-.304688.246093-.605469.496093-.90625.746093-.078125.066407-.15625.128907-.234375.195313-.320313.265625-.632813.53125-.945313.796875-.0625.050781-.121093.101562-.179687.152343-.363281.308594-.722656.617188-1.074219.929688-.007812.007812-.015625.015625-.027344.023438-1.117187.980468-2.203124 1.972656-3.261718 2.980468-.042969.042969-.085938.082032-.125.125-.300782.285156-.59375.570313-.886719.859375-.078125.070313-.152344.144531-.226563.21875-.261718.257813-.515624.515625-.773437.773438-.085937.089843-.175781.179687-.265625.269531-.238281.242188-.472656.488281-.707031.730469-.097657.101562-.191407.199219-.285157.300781-.226562.238281-.449218.472656-.671874.714844-.09375.101562-.191407.207031-.289063.3125-.21875.238281-.433594.476562-.648437.714844-.089844.105468-.183594.207031-.277344.3125-.214844.242187-.429688.488281-.640625.734374-.085938.101563-.171875.199219-.257813.296876-.21875.257812-.4375.519531-.652344.78125-.074218.085937-.144531.171874-.21875.257812-.246093.300781-.492187.601562-.730468.902344-.035156.046875-.070313.089844-.109375.136718-.566407.714844-1.113281 1.433594-1.640625 2.15625-.007813.011719-.015625.023438-.023438.03125-.246094.339844-.488281.6875-.730468 1.027344-.054688.085938-.113282.167969-.171876.253906-.183593.269532-.371093.542969-.550781.8125-.074219.113282-.144531.21875-.214843.328126-.164063.25-.324219.5-.484376.75-.074218.125-.148437.246093-.226562.367187-.148438.242187-.296875.480469-.4375.71875-.078125.132813-.152344.261719-.230469.390625-.136719.234375-.273437.472656-.40625.707031-.074219.132813-.148437.265625-.222656.398438-.132813.238281-.257813.472656-.386719.710937-.066406.128906-.140625.265625-.210937.398438-.125.242187-.246094.484375-.371094.726562-.0625.128906-.125.253906-.1875.382813-.125.253906-.246094.511719-.363281.765625-.054688.117187-.109375.234375-.164063.351562-.128906.289063-.253906.574219-.375.859375-.039062.089844-.078125.175781-.113281.261719-.320312.757812-.613281 1.519531-.882812 2.289062-.027344.070313-.046876.144532-.074219.21875-.105469.304688-.207031.609376-.304688.917969-.039062.121094-.074219.242188-.109375.363281-.082031.261719-.160156.523438-.234375.785157-.042969.136719-.078125.277343-.113281.417969-.066406.246093-.128906.492187-.191406.734374-.039063.148438-.074219.300782-.109375.453126-.054688.234374-.109375.472656-.160157.710937-.035156.152344-.0625.308594-.09375.464844-.046874.234375-.089843.46875-.132812.703125-.027344.15625-.058594.316406-.082031.476562-.039063.234375-.074219.46875-.105469.703125-.023438.160157-.046875.320313-.066406.476563-.03125.238281-.058594.476562-.082032.71875-.015624.15625-.035156.308594-.046874.464844-.023438.25-.042969.5-.058594.753906-.011719.140625-.023438.285156-.03125.433594-.015625.277343-.023438.558593-.035156.839843-.003907.117188-.007813.234375-.011719.351563-.015625.800781 0 1.601562.042969 2.410156.003906.113281.015624.226562.023437.339844.019531.289062.039063.578125.0625.871094.015625.148437.035156.296874.050781.445312.023438.257812.054688.511719.085938.769531.019531.164063.046875.324219.070312.488281.035156.246094.070313.488282.113282.734376.027343.167968.058593.339843.089843.511718.042969.238282.085938.476563.136719.71875.035156.171875.074219.347656.113281.523438.050781.238281.105469.476562.164063.714844.042968.175781.085937.351562.132812.527343.0625.238281.125.480469.191406.71875.050782.175781.097657.351563.152344.527344.070313.242187.148438.488281.226563.730469.054687.171875.105469.347656.164062.519531.085938.25.175781.507813.265625.757813.058594.164062.113282.328124.175782.492187.105468.28125.21875.5625.332031.847656.054687.136719.105469.269531.160156.40625.167969.410157.34375.816407.527344 1.226563.007812.011718.011719.023437.015625.035156.191406.421875.390625.84375.601562 1.269531.0625.136719.136719.269531.207032.40625.144531.289063.289062.574219.441406.863281.089844.167969.183594.332032.273437.496094.140625.261719.285157.523438.433594.785156.101563.175782.207031.351563.3125.53125.144531.25.292969.5.449219.75.109375.183594.230468.371094.34375.554688.15625.246094.3125.488281.472656.734375.121094.1875.246094.375.371094.5625.164062.246094.332031.488281.503906.734375.128906.191406.261719.378906.394531.5625.175781.25.355469.496094.539063.746094.136718.183594.273437.371094.414062.558594.191406.25.386719.503906.582032.757812.140624.179688.28125.363281.429687.546875.207031.261719.425781.527344.640625.789063.140625.171874.28125.34375.421875.515624.246094.292969.5.585938.753906.878907.125.144531.246094.289062.371094.433593.386719.4375.78125.875 1.183594 1.316407.191406.207031.402343.402343.617187.589843.097656.085938.199219.164063.300782.246094.113281.085938.230468.171875.347656.257813.140625.097656.28125.195312.429687.289062.0625.042969.132813.078125.199219.121094.457031.269531.933594.519531 1.449219.726563 2.222656.226562 4.488281.421874 6.808593.582031 1.039063.074219 2.039063.050781 3.015626-.027344.316406-.035156.640624-.0625.957031-.097656 3.296875-.445313 6.089843-1.757813 7.914062-3.816407 20.757813-23.472656 18.335938-44.761718 4.933594-63.023437 22.402344-16.246094 51.175781-28.007813 65.882813-33.429687 1.089843-.398438 2.164062-.644532 3.199218-.757813zm0 0" fill="#99af17"/><path d="m180.546875 190.992188c-115.621094-19.375-99.101563-108.136719-91.011719-135.644532 1.363282-4.648437 7.628906-6.144531 13.820313-3.308594 37.390625 17.117188 153.027343 76.90625 89.402343 136.175782-2.78125 2.589844-7.265624 3.605468-12.210937 2.777344zm0 0" fill="#eacf32"/><path d="m110.863281 55.566406c-2.746093-1.324218-5.269531-2.503906-7.507812-3.53125-6.1875-2.832031-12.457031-1.335937-13.820313 3.308594-8.089844 27.511719-24.609375 116.269531 91.011719 135.648438 4.945313.828124 9.425781-.1875 12.210937-2.78125 2.65625-2.472657 4.992188-4.949219 7.042969-7.421876-99.777343-18.859374-96.410156-91.273437-88.9375-125.222656zm0 0" fill="#ccc033"/><path d="m190.339844 175.59375c-1.714844 0-3.417969-.734375-4.605469-2.152344l-30.398437-36.359375c-2.125-2.542969-1.789063-6.328125.753906-8.453125 2.542968-2.125 6.328125-1.785156 8.453125.753906l30.398437 36.359376c2.125 2.542968 1.789063 6.328124-.757812 8.453124-1.121094.9375-2.484375 1.398438-3.84375 1.398438zm0 0" fill="#fcda4f"/><path d="m15.511719 464.503906h271c.65625-4.957031.992187-10.003906.992187-15.125 0-7.710937-.769531-15.257812-2.226562-22.574218 3.46875-5.097657 5.496094-11.253907 5.496094-17.882813 0-15.433594-10.980469-28.300781-25.558594-31.214844 1.378906-3.570312 2.144531-7.441406 2.144531-11.5 0-17.582031-14.253906-31.835937-31.835937-31.835937-1.550782 0-3.082032.121094-4.574219.332031-1.972657-15.6875-15.351563-27.828125-31.574219-27.828125-12.878906 0-23.964844 7.652344-28.976562 18.65625-5.015626-11.003906-16.097657-18.65625-28.976563-18.65625-13.0625 0-24.277344 7.867188-29.1875 19.117188-4.09375-1.917969-8.664063-2.996094-13.484375-2.996094-17.582031 0-31.835938 14.253906-31.835938 31.835937 0 1.664063.128907 3.296875.375 4.894531-1.027343.890626-2.039062 1.796876-3.03125 2.71875-15.542968 2.105469-27.527343 15.417969-27.527343 31.539063 0 1.695313.136719 3.359375.394531 4.984375-1.046875 2.164062-2.019531 4.367188-2.933594 6.597656-.695312-.046875-1.394531-.074218-2.105468-.074218-17.582032 0-31.835938 14.253906-31.835938 31.835937.003906 11.503906 6.113281 21.582031 15.261719 27.175781zm0 0" fill="#bf6c0d"/><path d="m15.511719 464.503906h29.976562c0-.015625 0-.027344 0-.042968 0-17.582032 14.253907-31.835938 31.835938-31.835938.710937 0 1.410156.035156 2.105469.078125.914062-2.230469 1.886718-4.433594 2.929687-6.597656-.253906-1.625-.390625-3.289063-.390625-4.988281 0-16.117188 11.984375-29.429688 27.527344-31.535157.992187-.921875 2.003906-1.828125 3.027344-2.71875-.246094-1.597656-.371094-3.230469-.371094-4.894531 0-17.582031 14.253906-31.835938 31.835937-31.835938 4.820313 0 9.390625 1.078126 13.484375 2.996094 4.910156-11.25 16.125-19.117187 29.1875-19.117187 12.878906 0 23.960938 7.652343 28.976563 18.65625 4.25-9.332031 12.875-16.234375 23.253906-18.121094-1.101563-.113281-2.226563-.175781-3.359375-.175781-1.554688 0-3.082031.117187-4.574219.332031-1.972656-15.691406-15.355469-27.828125-31.578125-27.828125-12.878906 0-23.960937 7.652344-28.976562 18.652344-5.011719-11-16.097656-18.652344-28.976563-18.652344-13.058593 0-24.273437 7.867188-29.183593 19.117188-4.097657-1.917969-8.664063-2.996094-13.488282-2.996094-17.582031 0-31.835937 14.25-31.835937 31.835937 0 1.664063.128906 3.296875.375 4.890625-1.023438.894532-2.035157 1.796875-3.03125 2.71875-15.539063 2.105469-27.523438 15.417969-27.523438 31.539063 0 1.699219.136719 3.363281.390625 4.988281-1.046875 2.164062-2.019531 4.367188-2.933594 6.597656-.695312-.046875-1.394531-.078125-2.101562-.078125-17.582031 0-31.835938 14.253907-31.835938 31.835938-.003906 11.507812 6.105469 21.585937 15.253907 27.179687zm0 0" fill="#a56021"/><path d="m378.097656 251.503906s.089844-33.363281-31.109375-61.636718c-1.582031-1.433594-3.988281-1.433594-5.570312 0-31.199219 28.273437-31.105469 61.636718-31.105469 61.636718l.097656.007813c-.058594.820312-.097656 1.648437-.097656 2.488281 0 18.714844 15.171875 33.890625 33.890625 33.890625s33.894531-15.175781 33.894531-33.890625c0-.839844-.039062-1.667969-.101562-2.488281zm0 0" fill="#fcda4f"/><path d="m349.652344 400.84375s.160156-57.957031-54.039063-107.070312c-2.746093-2.488282-6.929687-2.488282-9.675781 0-54.199219 49.113281-54.035156 107.070312-54.035156 107.070312l.171875.011719c-.101563 1.429687-.171875 2.867187-.171875 4.324219 0 32.515624 26.359375 58.871093 58.871094 58.871093 32.519531 0 58.878906-26.359375 58.878906-58.871093 0-1.457032-.074219-2.894532-.175782-4.324219zm0 0" fill="#fcda4f"/><path d="m310.3125 451.558594c-2.300781 0-4.492188-1.328125-5.488281-3.566406-1.34375-3.027344.023437-6.574219 3.050781-7.917969 12.621094-5.605469 20.773438-18.125 20.773438-31.894531 0-.734376-.035157-1.558594-.109376-2.585938l-.789062-10.863281c-.242188-3.304688 2.246094-6.179688 5.550781-6.417969 3.320313-.234375 6.179688 2.246094 6.417969 5.550781l.785156 10.859375c.101563 1.375.144532 2.472656.144532 3.457032 0 18.511718-10.957032 35.335937-27.90625 42.863281-.785157.347656-1.613282.515625-2.429688.515625zm0 0" fill="#fce575"/><g fill="#eacf32"><path d="m273.902344 405.179688c0-1.457032.070312-2.894532.171875-4.324219l-.171875-.011719s-.125-45.761719 37.871094-90.417969c-4.761719-5.597656-10.121094-11.179687-16.160157-16.652343-2.746093-2.488282-6.929687-2.488282-9.675781 0-54.199219 49.113281-54.035156 107.070312-54.035156 107.070312l.171875.011719c-.101563 1.429687-.171875 2.867187-.171875 4.324219 0 32.515624 26.359375 58.875 58.871094 58.875 7.402343 0 14.476562-1.378907 21-3.871094-22.140626-8.460938-37.871094-29.890625-37.871094-55.003906zm0 0"/><path d="m329.273438 352.761719c0 9.664062-7.832032 17.5-17.5 17.5-9.664063 0-17.5-7.835938-17.5-17.5 0-9.664063 7.835937-17.5 17.5-17.5 9.667968 0 17.5 7.835937 17.5 17.5zm0 0"/><path d="m340.3125 254c0-.835938.039062-1.664062.097656-2.488281l-.097656-.007813s-.058594-23.945312 18.894531-48.457031c-3.417969-4.417969-7.449219-8.859375-12.21875-13.179687-1.582031-1.433594-3.988281-1.433594-5.570312 0-31.199219 28.273437-31.105469 61.636718-31.105469 61.636718l.097656.007813c-.058594.824219-.097656 1.652343-.097656 2.488281 0 18.71875 15.171875 33.894531 33.890625 33.894531 5.386719 0 10.476563-1.261719 15-3.5-11.191406-5.535156-18.890625-17.0625-18.890625-30.394531zm0 0"/></g><path d="m141.089844 417.363281c0 9.664063-7.832032 17.5-17.5 17.5-9.664063 0-17.5-7.835937-17.5-17.5 0-9.664062 7.835937-17.5 17.5-17.5 9.667968 0 17.5 7.835938 17.5 17.5zm0 0" fill="#a56021"/><path d="m174.089844 381.363281c0 9.664063-7.832032 17.5-17.5 17.5-9.664063 0-17.5-7.835937-17.5-17.5 0-9.664062 7.835937-17.5 17.5-17.5 9.667968 0 17.5 7.835938 17.5 17.5zm0 0" fill="#a56021"/><path d="m222.816406 41.261719s.058594-21.953125-20.46875-40.554688c-1.039062-.941406-2.625-.941406-3.667968 0-20.527344 18.601563-20.464844 40.554688-20.464844 40.554688l.0625.003906c-.039063.542969-.0625 1.085937-.0625 1.640625 0 12.3125 9.980468 22.300781 22.300781 22.300781 12.316406 0 22.300781-9.984375 22.300781-22.300781 0-.554688-.023437-1.097656-.066406-1.640625zm0 0" fill="#fcda4f"/><path d="m197.953125 42.90625c0-.554688.027344-1.097656.066406-1.640625l-.066406-.003906s-.039063-15.753907 12.433594-31.882813c-2.25-2.910156-4.902344-5.832031-8.039063-8.671875-1.039062-.941406-2.625-.941406-3.667968 0-20.527344 18.601563-20.464844 40.554688-20.464844 40.554688l.0625.003906c-.039063.542969-.0625 1.085937-.0625 1.640625 0 12.3125 9.980468 22.300781 22.300781 22.300781 3.542969 0 6.894531-.832031 9.871094-2.300781-7.367188-3.644531-12.433594-11.230469-12.433594-20zm0 0" fill="#eacf32"/></svg>