<svg width="600" height="600" viewBox="0 0 600 600" fill="none" xmlns="http://www.w3.org/2000/svg">
<path d="M449.667 233.873C460.33 218.937 466.668 200.703 466.668 180.953C466.668 130.546 425.806 89.6836 375.398 89.6836C374.651 89.6836 373.928 89.7773 373.186 89.7959C357.616 65.8604 330.682 50 300.001 50C264.409 50 233.847 71.3311 220.254 101.88C165.708 116.129 125.397 165.593 125.397 224.604C125.397 257.049 137.668 286.557 157.69 309.004C157.345 312.572 157.143 316.183 157.143 319.842C157.143 381.207 206.889 430.953 268.254 430.953C274.942 430.953 301.579 430.356 307.937 429.216L310.626 401.716C326.348 410.236 344.354 415.08 363.491 415.08C424.856 415.08 474.603 365.334 474.603 303.969C474.604 277.382 465.241 252.997 449.667 233.873Z" fill="#AFD755"/>
<path d="M307.937 389.188C295.203 392.474 281.103 392.363 266.032 385.245C245.622 375.605 230.832 356.013 228.829 333.53C228.042 324.699 229.091 316.214 231.607 308.386C232.597 305.308 231.323 302.038 228.823 299.987C209.313 283.984 196.826 259.742 196.826 232.539C196.826 197.237 217.818 166.913 247.971 153.166C251.117 151.731 253.146 148.604 252.798 145.163C252.536 142.576 252.382 139.958 252.382 137.301C252.382 95.9551 281.156 61.4043 319.75 52.375C313.393 50.8984 306.811 50 300.001 50C264.409 50 233.847 71.3311 220.254 101.88C165.708 116.129 125.397 165.593 125.397 224.604C125.397 257.049 137.668 286.557 157.69 309.004C157.345 312.572 157.143 316.183 157.143 319.842C157.143 381.207 206.889 430.953 268.254 430.953C274.942 430.953 301.579 430.356 307.937 429.216V404.963V389.188H307.937Z" fill="#96BE4B"/>
<path d="M292.064 391.269C291.81 391.269 291.564 391.234 291.311 391.231L284.128 542.063H331.747L324.719 394.481C324.467 389.194 319.175 385.383 314.221 387.245C307.326 389.837 299.868 391.269 292.064 391.269Z" fill="#AF6E5A"/>
<path d="M324.719 394.481C324.467 389.194 319.175 385.383 314.221 387.245C307.326 389.837 299.868 391.27 292.064 391.27C291.81 391.27 291.564 391.235 291.311 391.232L284.128 542.064H307.937V412.863C307.937 409.446 310.124 406.414 313.364 405.334L325.051 401.438L324.719 394.481Z" fill="#965A50"/>
<path d="M347.62 550H268.255C263.872 550 260.318 546.45 260.318 542.063C260.318 537.677 263.872 534.127 268.255 534.127H347.62C352.003 534.127 355.557 537.677 355.557 542.063C355.557 546.45 352.003 550 347.62 550Z" fill="#96BE4B"/>
</svg>
