<svg height="494pt" viewBox="0 0 494 494.40616" width="494pt" xmlns="http://www.w3.org/2000/svg"><path d="m110.589844 494.40625c-27.855469 0-55.679688-10.289062-77.265625-30.863281-45.664063-43.535157-43.117188-119.105469 1.507812-163.710938l53.132813-53.136719c23.9375-23.921874 57.378906-35.519531 90.480468-32.160156 9.503907.960938 15.679688 10.589844 13.199219 19.824219l-.125.460937c-2.015625 7.472657-9.152343 12.210938-16.867187 11.488282-23.453125-2.222656-47.101563 6.066406-64.046875 23.007812l-54.046875 54.050782c-29.519532 29.519531-34.417969 77.472656-7.90625 109.726562 30.417968 37.007812 85.457031 38.992188 118.53125 5.9375l56.574218-56.578125c15.167969-15.167969 23.457032-35.230469 23.359376-56.496094 0-2.445312-.09375-4.816406-.304688-7.136719-.671875-7.820312 3.839844-15.148437 11.425781-17.261718l.382813-.113282c9.234375-2.574218 18.960937 3.570313 19.921875 13.105469.367187 3.726563.558593 7.503907.558593 11.328125.128907 29.792969-11.488281 57.953125-32.734374 79.199219l-56.578126 56.574219c-21.839843 21.84375-50.527343 32.753906-79.199218 32.753906zm0 0" fill="#ffcb5a"/><path d="m325.550781 279.429688c-3.664062 0-7.34375-.175782-11.023437-.542969-9.648438-.960938-15.90625-10.753907-13.378906-20.113281 2.050781-7.597657 9.296874-12.382813 17.121093-11.664063 23.375 2.160156 46.945313-6.128906 63.855469-23.039063l56.578125-56.574218c15.167969-15.171875 23.453125-35.234375 23.359375-56.496094.09375-21.425781-8.207031-41.488281-23.390625-56.675781-31.136719-31.117188-84.433594-28.652344-115.554687 2.464843l-54.128907 54.128907c-16.910156 16.914062-25.199219 40.464843-23.039062 63.855469.722656 7.824218-4.0625 15.074218-11.664063 17.121093-9.359375 2.527344-19.167968-3.746093-20.109375-13.390625-3.28125-33.007812 8.335938-66.335937 32.191407-90.195312l53.503906-53.503906c43.742187-43.742188 115.679687-47.421876 160.109375-4.382813 22.097656 21.410156 34.226562 50.113281 34.082031 80.59375.128906 29.710937-11.488281 57.871094-32.738281 79.117187l-56.574219 56.578126c-21.214844 21.199218-49.917969 32.71875-79.199219 32.71875zm0 0" fill="#ffcb5a"/><path d="m150.335938 342.710938c-6.242188-6.242188-6.242188-16.386719 0-22.625l169.375-169.375c6.238281-6.242188 16.382812-6.242188 22.625 0 6.238281 6.238281 6.238281 16.382812 0 22.625l-169.378907 169.375c-6.238281 6.238281-16.367187 6.238281-22.621093 0zm0 0" fill="#fe9d58"/></svg>