<svg width="96" height="96" viewBox="0 0 96 96" fill="none" xmlns="http://www.w3.org/2000/svg">
<path d="M73.0942 56.6974L72.3052 40.9815C72.23 39.4862 70.995 38.2665 69.497 38.2665H26.5033C25.0053 38.2665 23.7703 39.4862 23.6951 40.9815L22.9059 56.6743C22.8701 57.3864 23.1063 58.0969 23.567 58.6414L33.8225 70.7934C34.3567 71.4249 35.1421 71.8192 35.9696 71.8192H60.0303C60.8578 71.8192 61.6432 71.4307 62.1774 70.7992L72.4329 58.665C72.8938 58.1207 73.1302 57.4095 73.0942 56.6974Z" fill="#B8CFD6"/>
<path d="M48.0005 38.2665H26.5033C25.0053 38.2665 23.7703 39.4862 23.6951 40.9815L22.9059 56.6743C22.8701 57.3864 23.1063 58.0969 23.567 58.6414L33.8225 70.7934C34.3567 71.4249 35.1421 71.8192 35.9696 71.8192H48.0003L48.0005 38.2665Z" fill="#EBF6FA"/>
<path d="M61.8055 68.0706H34.1948C31.0131 68.0706 28.5059 70.611 28.5059 73.7904V77.7326C28.5059 80.9124 31.0131 83.4411 34.1948 83.4411H35.0665V92.3184C35.0665 93.8704 36.3572 95.0627 37.9101 95.0627H58.0904C59.6432 95.0627 60.934 93.8704 60.934 92.3184V83.4411H61.8057C64.9874 83.4411 67.4946 80.9124 67.4946 77.7326V73.7904C67.4946 70.611 64.987 68.0706 61.8055 68.0706Z" fill="#859DA6"/>
<path d="M47.9996 68.0706H34.1946C31.0129 68.0706 28.5056 70.6108 28.5056 73.7904V77.7326C28.5056 80.9124 31.0129 83.4411 34.1946 83.4411H35.0662V92.3184C35.0662 93.8704 36.357 95.0627 37.9099 95.0627H47.9998L47.9996 68.0706Z" fill="#B8CFD6"/>
<path d="M73.0941 56.7346L72.3051 41.0003C72.2299 39.505 70.9949 38.2667 69.4969 38.2667H26.5032C25.0052 38.2667 23.7702 39.4864 23.695 40.9817L22.906 56.7115C22.9017 56.7989 22.9015 56.824 22.9052 57.0115H73.0951C73.0977 56.8238 73.0982 56.8146 73.0941 56.7346Z" fill="#859DA6"/>
<path d="M48.0004 38.2665H26.5032C25.0052 38.2665 23.7702 39.4862 23.695 40.9815L22.906 56.7112C22.9017 56.7986 22.9015 56.8237 22.9052 57.0112H48.0004V38.2665Z" fill="#B8CFD6"/>
<path d="M70.2858 90.3767H25.7141C24.1612 90.3767 22.9023 91.6365 22.9023 93.1885C22.9023 94.7404 24.1612 96 25.7141 96H70.286C71.8389 96 73.0978 94.7402 73.0978 93.1883C73.0978 91.6363 71.8387 90.3767 70.2858 90.3767Z" fill="#34444A"/>
<path d="M47.9996 90.3767H25.7141C24.1612 90.3767 22.9023 91.6365 22.9023 93.1885C22.9023 94.7404 24.1612 96 25.7141 96H47.9998V90.3767H47.9996Z" fill="#859DA6"/>
<path d="M57.7341 9.72844C57.7341 4.36425 53.3674 0 48.0002 0C42.6328 0 38.2661 4.36406 38.2661 9.72844C38.2661 9.74962 38.2663 9.77063 38.2669 9.79181C38.3139 15.8741 45.0859 23.9872 45.8602 24.8953C46.3944 25.5216 47.1765 25.8823 48 25.8823C48.8235 25.8823 49.6055 25.5216 50.1397 24.8953C50.9137 23.9878 57.6776 15.8841 57.7329 9.80288C57.7337 9.77794 57.7341 9.75338 57.7341 9.72844Z" fill="#5791DE"/>
<path d="M48.0004 0C42.633 0 38.2664 4.36406 38.2664 9.72844C38.2664 9.74962 38.2665 9.77063 38.2671 9.79181C38.3142 15.8741 45.0861 23.9872 45.8605 24.8953C46.3947 25.5216 47.1767 25.8823 48.0002 25.8823L48.0004 0Z" fill="#52C5FF"/>
<path d="M34.1517 19.1603C34.1364 19.1442 34.121 19.1284 34.1054 19.1129C32.5908 17.5992 30.5772 16.7657 28.4354 16.7657C26.2936 16.7657 24.2799 17.5994 22.7656 19.1127C21.2508 20.6264 20.417 22.6388 20.417 24.7797C20.417 26.9204 21.2512 28.9328 22.7656 30.4465C22.7787 30.4596 22.7921 30.4727 22.8054 30.4855C26.1725 33.7964 33.8116 34.5589 35.3139 34.6786C35.3885 34.6844 35.4629 34.6874 35.5372 34.6874C36.2797 34.6874 36.9959 34.3934 37.5251 33.8642C38.1072 33.2822 38.4052 32.4745 38.3397 31.6542C38.2201 30.1536 37.4581 22.5293 34.1517 19.1603Z" fill="#5791DE"/>
<path d="M22.7656 19.1125C21.2508 20.6262 20.417 22.6387 20.417 24.7795C20.417 26.9202 21.2512 28.9327 22.7656 30.4464C22.7787 30.4595 22.7921 30.4726 22.8054 30.4854C26.1725 33.7962 33.8116 34.5588 35.3139 34.6784C35.3885 34.6842 35.4629 34.6872 35.5372 34.6872C36.2797 34.6872 36.9959 34.3932 37.525 33.8641L22.7656 19.1125Z" fill="#52C5FF"/>
<path d="M73.1884 30.4953C73.2046 30.4799 73.2203 30.4645 73.2359 30.4489C74.7496 28.9343 75.583 26.9208 75.583 24.7789C75.583 22.6371 74.7494 20.6234 73.2361 19.1091C71.7224 17.5943 69.7099 16.7605 67.5691 16.7605C65.4284 16.7605 63.4159 17.5947 61.9022 19.1091C61.8891 19.1222 61.876 19.1356 61.8632 19.1489C58.5524 22.516 57.7898 30.1551 57.6702 31.6574C57.6644 31.732 57.6614 31.8064 57.6614 31.8807C57.6614 32.6232 57.9554 33.3394 58.4845 33.8686C59.0665 34.4508 59.8742 34.7487 60.6946 34.6833C62.1949 34.5638 69.8194 33.8016 73.1884 30.4953Z" fill="#5791DE"/>
<path d="M73.2361 19.1092C71.7224 17.5944 69.7099 16.7606 67.5691 16.7606C65.4284 16.7606 63.4159 17.5948 61.9022 19.1092C61.8891 19.1224 61.876 19.1357 61.8632 19.149C58.5524 22.5161 57.7898 30.1552 57.6702 31.6575C57.6644 31.7321 57.6614 31.8066 57.6614 31.8808C57.6614 32.6233 57.9554 33.3396 58.4845 33.8687L73.2361 19.1092Z" fill="#52C5FF"/>
</svg>
