<svg height="503pt" viewBox="0 0 503.75201 503" width="503pt" xmlns="http://www.w3.org/2000/svg"><path d="m111.992188 495.886719c-28.6875 0-57.390626-10.929688-79.230469-32.769531-43.683594-43.679688-43.683594-114.765626 0-158.464844l56.652343-56.496094c28.257813-28.253906 69.683594-39.328125 108.128907-28.910156l-8.367188 30.894531c-27.375-7.4375-56.960937.480469-77.136719 20.671875l-56.65625 56.496094c-31.199218 31.203125-31.199218 81.984375.015626 113.203125 31.21875 31.199219 81.984374 31.183593 113.21875 0l33.277343-33.28125 22.625 22.625-33.28125 33.277343c-21.871093 21.824219-50.558593 32.753907-79.246093 32.753907zm0 0" fill="#ffcb5a"/><path d="m429.464844 224.878906-22.625-22.625 33.28125-33.28125c15.152344-15.292968 23.453125-35.390625 23.3125-56.574218.140625-21.296876-8.160156-41.34375-23.363282-56.671876-31.167968-31.167968-81.949218-31.152343-113.167968.046876l-56.460938 56.625c-20.175781 20.175781-28.082031 49.726562-20.671875 77.167968l-30.898437 8.335938c-10.382813-38.464844.6875-79.90625 28.929687-108.128906l56.464844-56.625c43.695313-43.695313 114.78125-43.695313 158.476563-.015626 21.296874 21.472657 32.882812 49.617188 32.691406 79.265626.191406 29.550781-11.394532 57.726562-32.640625 79.152343zm0 0" fill="#ffcb5a"/><path d="m151.753906 344.125c-6.242187-6.238281-6.242187-16.382812 0-22.621094l169.375-169.378906c6.238282-6.238281 16.382813-6.238281 22.625 0 6.238282 6.242188 6.238282 16.386719 0 22.625l-169.378906 169.375c-6.253906 6.242188-16.382812 6.242188-22.621094 0zm0 0" fill="#fe9d58"/><path d="m503.753906 376.125c0 70.695312-57.308594 128-128 128-70.695312 0-128-57.304688-128-128 0-70.691406 57.304688-128 128-128 70.691406 0 128 57.308594 128 128zm0 0" fill="#e76e54"/><path d="m423.753906 328.125c-6.242187-6.238281-16.386718-6.238281-22.625 0l-25.375 25.378906-25.378906-25.378906c-6.238281-6.238281-16.382812-6.238281-22.621094 0-6.242187 6.242188-6.242187 16.386719 0 22.625l25.375 25.375-25.375 25.378906c-6.242187 6.238282-6.242187 16.382813 0 22.621094 6.238282 6.242188 16.382813 6.242188 22.621094 0l25.378906-25.375 25.375 25.375c6.238282 6.242188 16.382813 6.242188 22.625 0 6.238282-6.238281 6.238282-16.382812 0-22.621094l-25.378906-25.378906 25.378906-25.375c6.238282-6.257812 6.238282-16.382812 0-22.625zm0 0" fill="#fff"/></svg>